<svg width="22" height="22" viewBox="0 0 22 22" fill="none" xmlns="http://www.w3.org/2000/svg">
<path d="M10.5683 16.1829L12.7279 11H11.4322V7.5447L9.27262 12.7276H10.5683V16.1829ZM7.32902 19.6382C7.14546 19.6382 6.99159 19.5761 6.86741 19.4519C6.74324 19.3278 6.68115 19.1739 6.68115 18.9903V4.39175C6.68115 4.20819 6.74324 4.05432 6.86741 3.93015C6.99159 3.80597 7.14546 3.74388 7.32902 3.74388H9.27262V2.36177H12.7279V3.74388H14.6715C14.8551 3.74388 15.0089 3.80597 15.1331 3.93015C15.2573 4.05432 15.3194 4.20819 15.3194 4.39175V18.9903C15.3194 19.1739 15.2573 19.3278 15.1331 19.4519C15.0089 19.5761 14.8551 19.6382 14.6715 19.6382H7.32902ZM7.97688 18.3425H14.0236V5.03962H7.97688V18.3425Z" fill="#1F1F1F"/>
</svg>
