<svg width="37" height="38" viewBox="0 0 37 38" fill="none" xmlns="http://www.w3.org/2000/svg">
<path d="M17.6743 32.473L25.466 15.973H19.5077V4.97299L11.716 21.473H17.6743V32.473ZM18.4993 37.148C15.9021 37.148 13.4882 36.682 11.2577 35.7501C9.02713 34.8181 7.08685 33.5272 5.43685 31.8772C3.78685 30.2272 2.49588 28.2869 1.56393 26.0563C0.631988 23.8258 0.166016 21.4119 0.166016 18.8147C0.166016 16.248 0.631988 13.8494 1.56393 11.6188C2.49588 9.38827 3.78685 7.44799 5.43685 5.79799C7.08685 4.14799 9.02713 2.84938 11.2577 1.90216C13.4882 0.954934 15.9021 0.481323 18.4993 0.481323C21.066 0.481323 23.4646 0.954934 25.6952 1.90216C27.9257 2.84938 29.866 4.14799 31.516 5.79799C33.166 7.44799 34.4646 9.38827 35.4118 11.6188C36.3591 13.8494 36.8327 16.248 36.8327 18.8147C36.8327 21.4119 36.3591 23.8258 35.4118 26.0563C34.4646 28.2869 33.166 30.2272 31.516 31.8772C29.866 33.5272 27.9257 34.8181 25.6952 35.7501C23.4646 36.682 21.066 37.148 18.4993 37.148ZM18.4993 34.398C22.9299 34.398 26.6348 32.9084 29.6139 29.9292C32.5931 26.9501 34.0827 23.2452 34.0827 18.8147C34.0827 14.3841 32.5931 10.6792 29.6139 7.70007C26.6348 4.72091 22.9299 3.23132 18.4993 3.23132C14.0688 3.23132 10.3639 4.72091 7.38477 7.70007C4.4056 10.6792 2.91602 14.3841 2.91602 18.8147C2.91602 23.2452 4.4056 26.9501 7.38477 29.9292C10.3639 32.9084 14.0688 34.398 18.4993 34.398Z" fill="white"/>
</svg>
