<svg width="40" height="38" viewBox="0 0 40 38" fill="none" xmlns="http://www.w3.org/2000/svg">
<path d="M31.012 13.1313L28.9954 8.82299L24.687 6.80632L28.9954 4.78966L31.012 0.481323L33.0287 4.78966L37.337 6.80632L33.0287 8.82299L31.012 13.1313ZM34.862 26.3772L33.498 23.4787L30.5995 22.1147L33.498 20.7507L34.862 17.8522L36.226 20.7507L39.1245 22.1147L36.226 23.4787L34.862 26.3772ZM10.8912 37.148L10.4329 32.9313C10.0051 32.8702 9.56204 32.7327 9.10371 32.5188C8.64538 32.3049 8.24816 32.0452 7.91204 31.7397L4.33704 33.2522L0.303711 26.6522L3.78704 24.3605C3.63427 23.841 3.55788 23.3827 3.55788 22.9855C3.55788 22.5883 3.63427 22.1299 3.78704 21.6105L0.303711 19.3188L4.33704 12.7188L7.91204 14.2313C8.24816 13.9258 8.64538 13.666 9.10371 13.4522C9.56204 13.2383 10.0051 13.1008 10.4329 13.0397L10.8946 8.82299H18.5912L19.0495 13.0397C19.4773 13.1008 19.9204 13.2383 20.3787 13.4522C20.837 13.666 21.2343 13.9258 21.5704 14.2313L25.1454 12.7188L29.1787 19.3188L25.6954 21.6105C25.8482 22.1299 25.9245 22.5883 25.9245 22.9855C25.9245 23.3827 25.8482 23.841 25.6954 24.3605L29.1787 26.6522L25.1454 33.2522L21.5704 31.7397C21.2343 32.0452 20.837 32.3049 20.3787 32.5188C19.9204 32.7327 19.4773 32.8702 19.0495 32.9313L18.5878 37.148H10.8912ZM14.7412 28.2563C16.269 28.2563 17.5294 27.7598 18.5225 26.7667C19.5155 25.7737 20.012 24.5133 20.012 22.9855C20.012 21.4577 19.5155 20.1973 18.5225 19.2042C17.5294 18.2112 16.269 17.7147 14.7412 17.7147C13.2134 17.7147 11.953 18.2112 10.96 19.2042C9.96691 20.1973 9.47038 21.4577 9.47038 22.9855C9.47038 24.5133 9.96691 25.7737 10.96 26.7667C11.953 27.7598 13.2134 28.2563 14.7412 28.2563ZM14.7412 25.5063C14.0079 25.5063 13.4044 25.2695 12.9308 24.7959C12.4572 24.3223 12.2204 23.7188 12.2204 22.9855C12.2204 22.2522 12.4572 21.6487 12.9308 21.1751C13.4044 20.7015 14.0079 20.4647 14.7412 20.4647C15.4745 20.4647 16.078 20.7015 16.5516 21.1751C17.0252 21.6487 17.262 22.2522 17.262 22.9855C17.262 23.7188 17.0252 24.3223 16.5516 24.7959C16.078 25.2695 15.4745 25.5063 14.7412 25.5063ZM13.1829 34.398H16.2995L16.6662 30.9147C17.5523 30.7008 18.362 30.3952 19.0954 29.998C19.8287 29.6008 20.4974 29.0813 21.1014 28.4397L24.0912 29.7688L25.6037 27.3855L22.762 25.3688C23.0982 24.6049 23.2662 23.8105 23.2662 22.9855C23.2662 22.1605 23.0982 21.366 22.762 20.6022L25.6037 18.5855L24.0912 16.2022L21.1014 17.5313C20.4974 16.8897 19.8287 16.3702 19.0954 15.973C18.362 15.5758 17.5523 15.2702 16.6662 15.0563L16.2995 11.573H13.1829L12.8162 15.0563C11.9301 15.2702 11.1204 15.5758 10.387 15.973C9.65371 16.3702 8.98505 16.8897 8.38106 17.5313L5.39121 16.2022L3.87871 18.5855L6.72038 20.6022C6.38427 21.366 6.21621 22.1605 6.21621 22.9855C6.21621 23.8105 6.38427 24.6049 6.72038 25.3688L3.87871 27.3855L5.39121 29.7688L8.38106 28.4397C8.98505 29.0813 9.65371 29.6008 10.387 29.998C11.1204 30.3952 11.9301 30.7008 12.8162 30.9147L13.1829 34.398Z" fill="white"/>
</svg>
