<svg width="34" height="34" viewBox="0 0 34 34" fill="none" xmlns="http://www.w3.org/2000/svg">
<rect width="34" height="34" rx="4.14634" fill="#AA93B7"/>
<path d="M8.36187 14.6244V10.5213C8.36187 10.1758 8.49144 9.87342 8.75059 9.61427C9.00973 9.35513 9.31207 9.22556 9.6576 9.22556H24.3426C24.6881 9.22556 24.9904 9.35513 25.2496 9.61427C25.5087 9.87342 25.6383 10.1758 25.6383 10.5213V14.6244H24.3426V10.5213H9.6576V14.6244H8.36187ZM9.6576 22.1829C9.31207 22.1829 9.00973 22.0533 8.75059 21.7942C8.49144 21.535 8.36187 21.2327 8.36187 20.8871V15.9202H9.6576V20.8871H24.3426V15.9202H25.6383V20.8871C25.6383 21.2327 25.5087 21.535 25.2496 21.7942C24.9904 22.0533 24.6881 22.1829 24.3426 22.1829H9.6576ZM7.49805 24.7743V23.4786H26.5021V24.7743H7.49805ZM8.36187 15.9202V14.6244H13.5448C13.6623 14.6244 13.7744 14.6532 13.8813 14.7108C13.9881 14.7684 14.0703 14.8548 14.1279 14.97L15.3156 17.3887L18.1446 12.4001C18.2022 12.2849 18.285 12.2021 18.393 12.1517C18.501 12.1014 18.6134 12.0762 18.7303 12.0762C18.8472 12.0762 18.9588 12.1014 19.065 12.1517C19.1713 12.2021 19.2532 12.2849 19.3108 12.4001L20.4025 14.6244H25.6383V15.9202H20.0019C19.8831 15.9202 19.7697 15.8914 19.6617 15.8338C19.5538 15.7762 19.4728 15.6898 19.4188 15.5746L18.6845 14.0845L15.8555 19.0299C15.8019 19.1451 15.7215 19.2315 15.6143 19.2891C15.5071 19.3467 15.3945 19.3755 15.2766 19.3755C15.1586 19.3755 15.0457 19.3467 14.9377 19.2891C14.8297 19.2315 14.7469 19.1451 14.6894 19.0299L13.1345 15.9202H8.36187Z" fill="white"/>
</svg>
