<svg width="22" height="22" viewBox="0 0 22 22" fill="none" xmlns="http://www.w3.org/2000/svg">
<path d="M9.9203 20.502C9.9203 20.1421 10.0472 19.8362 10.3009 19.5842C10.5547 19.3323 10.8597 19.2063 11.216 19.2063V14.3473C11.0001 14.2897 10.7985 14.2141 10.6114 14.1205C10.4242 14.027 10.2514 13.901 10.0931 13.7426L8.19266 14.9304C7.9911 15.0599 7.77155 15.1391 7.534 15.1679C7.29645 15.1967 7.0553 15.1751 6.81055 15.1031L2.92335 14.0018C2.50584 13.8866 2.16391 13.6526 1.89756 13.2999C1.63122 12.9472 1.49805 12.5477 1.49805 12.1014C1.49805 11.5543 1.68881 11.09 2.07033 10.7084C2.45185 10.3269 2.91615 10.1362 3.46324 10.1362H9.96349C10.1075 9.9778 10.2658 9.84102 10.4386 9.72585C10.6114 9.61067 10.7985 9.51709 11.0001 9.44511V6.48652C11.0001 6.24177 11.0469 6.01142 11.1405 5.79546C11.234 5.57951 11.3672 5.39234 11.54 5.23398L14.4986 2.46975C14.8297 2.15301 15.2148 1.96945 15.6539 1.91906C16.093 1.86867 16.4997 1.96585 16.8741 2.2106C17.3348 2.49779 17.6335 2.90346 17.7703 3.4276C17.9071 3.95174 17.8315 4.44357 17.5435 4.90309L14.0882 10.5681C14.2034 10.7552 14.2862 10.9496 14.3366 11.1512C14.387 11.3527 14.4194 11.5615 14.4338 11.7774L16.7661 12.3389C17.0108 12.3965 17.2232 12.4973 17.4032 12.6412C17.5831 12.7852 17.7307 12.958 17.8459 13.1595L19.8111 16.7012C20.027 17.0899 20.1062 17.5002 20.0486 17.9321C19.991 18.3641 19.8039 18.7384 19.4871 19.0551C19.0984 19.4438 18.6341 19.6382 18.0942 19.6382C17.5543 19.6382 17.09 19.4438 16.7013 19.0551L12.5118 14.8656V19.2063C12.8717 19.2063 13.1776 19.3332 13.4296 19.5869C13.6815 19.8407 13.8075 20.1457 13.8075 20.502H9.9203ZM4.08951 4.73728V3.44155H9.27244V4.73728H4.08951ZM12.2958 6.29216V9.33713C12.4542 9.36592 12.6089 9.40911 12.7601 9.4667C12.9113 9.52429 13.0517 9.58908 13.1812 9.66106L16.4422 4.21899C16.5429 4.06062 16.5681 3.88786 16.5177 3.70069C16.4673 3.51353 16.3558 3.38036 16.183 3.30118C16.0534 3.22199 15.9131 3.1932 15.7619 3.21479C15.6107 3.23639 15.4848 3.29758 15.384 3.39836L12.2958 6.29216ZM1.49805 8.19256V6.89683H5.81715V8.19256H1.49805ZM11.8639 13.1595C12.231 13.1595 12.5388 13.0354 12.7871 12.787C13.0355 12.5387 13.1596 12.2309 13.1596 11.8638C13.1596 11.4967 13.0355 11.1889 12.7871 10.9406C12.5388 10.6922 12.231 10.5681 11.8639 10.5681C11.4968 10.5681 11.189 10.6922 10.9407 10.9406C10.6923 11.1889 10.5682 11.4967 10.5682 11.8638C10.5682 12.2309 10.6923 12.5387 10.9407 12.787C11.189 13.0354 11.4968 13.1595 11.8639 13.1595ZM7.37203 13.937L9.42361 12.6844C9.35162 12.4829 9.31203 12.2741 9.30483 12.0582C9.29763 11.8422 9.30843 11.6335 9.33722 11.4319H3.46324C3.27608 11.4319 3.11771 11.4967 2.98814 11.6263C2.85857 11.7558 2.79378 11.9166 2.79378 12.1085C2.79378 12.2621 2.83697 12.3965 2.92335 12.5117C3.00973 12.6268 3.12491 12.706 3.26888 12.7492L7.37203 13.937ZM16.6365 13.613L14.153 13.0516C14.0666 13.2243 13.9587 13.3863 13.8291 13.5375C13.6995 13.6886 13.5556 13.8218 13.3972 13.937L17.6299 18.1481C17.7595 18.2777 17.9178 18.3425 18.105 18.3425C18.2922 18.3425 18.4505 18.2777 18.5801 18.1481C18.6989 18.0272 18.7682 17.8962 18.788 17.7551C18.8078 17.614 18.7817 17.4786 18.7097 17.3491L16.6365 13.613ZM3.22569 18.5584V17.2627H7.5448V18.5584H3.22569Z" fill="#1F1F1F"/>
</svg>
