<svg width="43" height="10" viewBox="0 0 43 10" fill="none" xmlns="http://www.w3.org/2000/svg">
<path d="M0.688 9V0.45H2.308V9H0.688ZM6.466 9V3.834C6.466 3.198 6.268 2.7 5.872 2.34C5.488 1.968 5.002 1.782 4.414 1.782C4.018 1.782 3.664 1.866 3.352 2.034C3.04 2.202 2.788 2.436 2.596 2.736C2.404 3.036 2.308 3.396 2.308 3.816L1.642 3.492C1.642 2.844 1.78 2.28 2.056 1.8C2.344 1.32 2.734 0.948 3.226 0.684C3.718 0.408 4.27 0.27 4.882 0.27C5.482 0.27 6.022 0.402 6.502 0.665999C6.994 0.93 7.378 1.302 7.654 1.782C7.942 2.262 8.086 2.832 8.086 3.492V9H6.466ZM12.244 9V3.834C12.244 3.198 12.046 2.7 11.65 2.34C11.266 1.968 10.786 1.782 10.21 1.782C9.814 1.782 9.454 1.866 9.13 2.034C8.818 2.202 8.566 2.436 8.374 2.736C8.182 3.036 8.086 3.396 8.086 3.816L7.168 3.492C7.204 2.832 7.378 2.268 7.69 1.8C8.014 1.32 8.428 0.948 8.932 0.684C9.436 0.408 9.988 0.27 10.588 0.27C11.212 0.27 11.77 0.402 12.262 0.665999C12.754 0.93 13.144 1.302 13.432 1.782C13.732 2.262 13.882 2.838 13.882 3.51V9H12.244ZM20.0464 9.18C19.1944 9.18 18.4264 8.988 17.7424 8.604C17.0584 8.208 16.5184 7.674 16.1224 7.002C15.7264 6.33 15.5284 5.568 15.5284 4.716C15.5284 3.876 15.7204 3.12 16.1044 2.448C16.5004 1.776 17.0284 1.248 17.6884 0.864C18.3604 0.468 19.1104 0.27 19.9384 0.27C20.7304 0.27 21.4264 0.45 22.0264 0.81C22.6384 1.17 23.1124 1.668 23.4484 2.304C23.7964 2.94 23.9704 3.66 23.9704 4.464C23.9704 4.584 23.9644 4.716 23.9524 4.86C23.9404 4.992 23.9164 5.148 23.8804 5.328H16.6624V3.978H23.0164L22.4224 4.5C22.4224 3.924 22.3204 3.438 22.1164 3.042C21.9124 2.634 21.6244 2.322 21.2524 2.106C20.8804 1.878 20.4304 1.764 19.9024 1.764C19.3504 1.764 18.8644 1.884 18.4444 2.124C18.0244 2.364 17.7004 2.7 17.4724 3.132C17.2444 3.564 17.1304 4.074 17.1304 4.662C17.1304 5.262 17.2504 5.79 17.4904 6.246C17.7304 6.69 18.0724 7.038 18.5164 7.29C18.9604 7.53 19.4704 7.65 20.0464 7.65C20.5264 7.65 20.9644 7.566 21.3604 7.398C21.7684 7.23 22.1164 6.978 22.4044 6.642L23.4484 7.704C23.0404 8.184 22.5364 8.55 21.9364 8.802C21.3484 9.054 20.7184 9.18 20.0464 9.18ZM31.7848 9V4.014C31.7848 3.366 31.5808 2.832 31.1728 2.412C30.7648 1.992 30.2368 1.782 29.5888 1.782C29.1568 1.782 28.7728 1.878 28.4368 2.07C28.1008 2.262 27.8368 2.526 27.6448 2.862C27.4528 3.198 27.3568 3.582 27.3568 4.014L26.6908 3.636C26.6908 2.988 26.8348 2.412 27.1228 1.908C27.4108 1.404 27.8128 1.008 28.3288 0.72C28.8448 0.42 29.4268 0.27 30.0748 0.27C30.7228 0.27 31.2928 0.432 31.7848 0.755999C32.2888 1.08 32.6848 1.506 32.9728 2.034C33.2608 2.55 33.4048 3.102 33.4048 3.69V9H31.7848ZM25.7368 9V0.45H27.3568V9H25.7368ZM39.0362 9.18C38.3402 9.18 37.7102 9.024 37.1462 8.712C36.5942 8.388 36.1622 7.944 35.8502 7.38C35.5382 6.816 35.3822 6.162 35.3822 5.418V0.45H37.0022V5.346C37.0022 5.814 37.0802 6.222 37.2362 6.57C37.4042 6.906 37.6442 7.164 37.9562 7.344C38.2682 7.524 38.6342 7.614 39.0542 7.614C39.6902 7.614 40.1882 7.416 40.5482 7.02C40.9082 6.612 41.0882 6.054 41.0882 5.346V0.45H42.7082V5.418C42.7082 6.162 42.5522 6.816 42.2402 7.38C41.9282 7.944 41.4962 8.388 40.9442 8.712C40.4042 9.024 39.7682 9.18 39.0362 9.18Z" fill="#AA93B7"/>
</svg>
