<svg width="20" height="16" viewBox="0 0 20 16" fill="none" xmlns="http://www.w3.org/2000/svg">
<path d="M1.36187 5.62444V1.52129C1.36187 1.17576 1.49144 0.873421 1.75059 0.614275C2.00973 0.355129 2.31207 0.225555 2.6576 0.225555H17.3426C17.6881 0.225555 17.9904 0.355129 18.2496 0.614275C18.5087 0.873421 18.6383 1.17576 18.6383 1.52129V5.62444H17.3426V1.52129H2.6576V5.62444H1.36187ZM2.6576 13.1829C2.31207 13.1829 2.00973 13.0533 1.75059 12.7942C1.49144 12.535 1.36187 12.2327 1.36187 11.8871V6.92017H2.6576V11.8871H17.3426V6.92017H18.6383V11.8871C18.6383 12.2327 18.5087 12.535 18.2496 12.7942C17.9904 13.0533 17.6881 13.1829 17.3426 13.1829H2.6576ZM0.498047 15.7743V14.4786H19.5021V15.7743H0.498047ZM1.36187 6.92017V5.62444H6.54479C6.66229 5.62444 6.77445 5.65323 6.88127 5.71082C6.98809 5.76841 7.07029 5.85479 7.12787 5.96997L8.31563 8.38867L11.1446 3.4001C11.2022 3.28492 11.285 3.20214 11.393 3.15175C11.501 3.10136 11.6134 3.07617 11.7303 3.07617C11.8472 3.07617 11.9588 3.10136 12.065 3.15175C12.1713 3.20214 12.2532 3.28492 12.3108 3.4001L13.4025 5.62444H18.6383V6.92017H13.0019C12.8831 6.92017 12.7697 6.89138 12.6617 6.83379C12.5538 6.7762 12.4728 6.68982 12.4188 6.57464L11.6845 5.08455L8.85552 10.0299C8.80192 10.1451 8.72151 10.2315 8.61429 10.2891C8.50708 10.3467 8.3945 10.3755 8.27656 10.3755C8.15864 10.3755 8.04568 10.3467 7.93771 10.2891C7.82973 10.2315 7.74695 10.1451 7.68936 10.0299L6.13448 6.92017H1.36187Z" fill="black"/>
</svg>
