<svg width="22" height="22" viewBox="0 0 22 22" fill="none" xmlns="http://www.w3.org/2000/svg">
<path d="M2.36182 19.6382L4.08946 11H17.9106L19.6382 19.6382H2.36182ZM3.22564 3.65747V2.36174H5.8171V3.65747H3.22564ZM3.95989 18.3424H10.3522V15.9669H4.43499L3.95989 18.3424ZM5.68753 8.40849L4.75892 7.50148L6.59454 5.66586L7.52315 6.57287L5.68753 8.40849ZM4.69413 14.6712H10.3522V12.2957H5.16923L4.69413 14.6712ZM11 6.24894C9.93465 6.24894 9.03483 5.87101 8.30059 5.11517C7.56634 4.35933 7.17042 3.44152 7.11283 2.36174H8.40856C8.45176 3.08159 8.7181 3.69346 9.2076 4.19736C9.6971 4.70126 10.2946 4.9532 11 4.9532C11.7055 4.9532 12.303 4.70126 12.7925 4.19736C13.282 3.69346 13.5483 3.08159 13.5915 2.36174H14.8872C14.8296 3.44152 14.4337 4.35933 13.6995 5.11517C12.9652 5.87101 12.0654 6.24894 11 6.24894ZM10.3522 10.1361V7.54467H11.6479V10.1361H10.3522ZM11.6479 18.3424H18.0402L17.5651 15.9669H11.6479V18.3424ZM11.6479 14.6712H17.3059L16.8308 12.2957H11.6479V14.6712ZM16.3125 8.38689L14.4769 6.55127L15.3839 5.64426L17.2411 7.45828L16.3125 8.38689ZM16.183 3.65747V2.36174H18.7744V3.65747H16.183Z" fill="#1F1F1F"/>
</svg>
