<svg width="29" height="29" viewBox="0 0 29 29" fill="none" xmlns="http://www.w3.org/2000/svg">
<path d="M5.75 26.1667C5.28333 26.1667 4.875 25.9917 4.525 25.6417C4.175 25.2917 4 24.8833 4 24.4167V6.33334C4 5.86668 4.175 5.45834 4.525 5.10834C4.875 4.75834 5.28333 4.58334 5.75 4.58334H7.64583V2.83334H9.54167V4.58334H19.4583V2.83334H21.3542V4.58334H23.25C23.7167 4.58334 24.125 4.75834 24.475 5.10834C24.825 5.45834 25 5.86668 25 6.33334V24.4167C25 24.8833 24.825 25.2917 24.475 25.6417C24.125 25.9917 23.7167 26.1667 23.25 26.1667H5.75ZM5.75 24.4167H23.25V11.875H5.75V24.4167ZM5.75 10.125H23.25V6.33334H5.75V10.125Z" fill="#001E2E"/>
<path d="M13.9086 23.0118V21.8424C13.3796 21.7496 12.9457 21.5477 12.6069 21.2368C12.2682 20.9259 12.0245 20.5338 11.876 20.0604L12.6557 19.7402C12.8134 20.1857 13.0408 20.5175 13.3378 20.7356C13.6348 20.9537 13.9921 21.0628 14.4098 21.0628C14.8553 21.0628 15.2219 20.9514 15.5096 20.7287C15.7973 20.5059 15.9412 20.1996 15.9412 19.8098C15.9412 19.4015 15.8136 19.0859 15.5583 18.8632C15.3031 18.6404 14.8228 18.413 14.1174 18.181C13.4492 17.9675 12.9503 17.6845 12.6208 17.3318C12.2914 16.9791 12.1266 16.5382 12.1266 16.0092C12.1266 15.4987 12.2914 15.0718 12.6208 14.7284C12.9503 14.385 13.3796 14.1901 13.9086 14.1437V12.9882H14.7439V14.1437C15.1616 14.1901 15.5212 14.327 15.8228 14.5544C16.1245 14.7818 16.3542 15.0718 16.512 15.4245L15.7323 15.7586C15.6024 15.4616 15.4284 15.2458 15.2103 15.1113C14.9922 14.9767 14.7068 14.9094 14.3541 14.9094C13.9272 14.9094 13.5884 15.0068 13.3378 15.2017C13.0872 15.3967 12.9619 15.6612 12.9619 15.9953C12.9619 16.348 13.1011 16.6334 13.3796 16.8515C13.658 17.0696 14.1731 17.2946 14.9249 17.5267C15.556 17.7216 16.0224 18.0023 16.324 18.3689C16.6257 18.7355 16.7765 19.1973 16.7765 19.7541C16.7765 20.3389 16.6048 20.8099 16.2614 21.1672C15.918 21.5245 15.4121 21.7542 14.7439 21.8563V23.0118H13.9086Z" fill="#001E2E"/>
<path fill-rule="evenodd" clip-rule="evenodd" d="M13.6704 23.25V22.0368C13.1897 21.9242 12.7788 21.7179 12.4459 21.4123C12.0738 21.0708 11.8088 20.6417 11.6488 20.1317L11.5833 19.9231L12.7966 19.4248L12.8802 19.6607C13.0265 20.0738 13.2299 20.3608 13.4788 20.5436C13.7296 20.7278 14.0358 20.8246 14.4098 20.8246C14.8146 20.8246 15.1265 20.724 15.3638 20.5403C15.5886 20.3663 15.703 20.132 15.703 19.8098C15.703 19.4548 15.5945 19.2109 15.4017 19.0426C15.1856 18.854 14.7461 18.6386 14.044 18.4076C13.3539 18.187 12.8137 17.8871 12.4468 17.4944C12.072 17.0932 11.8884 16.5923 11.8884 16.0092C11.8884 15.4422 12.0737 14.9547 12.449 14.5635C12.7753 14.2234 13.1863 14.0153 13.6704 13.934V12.75H14.9821V13.9385C15.3508 14.0078 15.6804 14.1487 15.9662 14.3642C16.3007 14.6164 16.5556 14.9387 16.7294 15.3272L16.8282 15.5481L15.6089 16.0707L15.5141 15.8541C15.3985 15.5897 15.2524 15.4171 15.0852 15.314C14.9163 15.2097 14.6786 15.1476 14.3541 15.1476C13.962 15.1476 13.6805 15.237 13.484 15.3898C13.2949 15.5369 13.2001 15.7302 13.2001 15.9953C13.2001 16.2745 13.3055 16.4909 13.5265 16.664C13.7676 16.8529 14.2455 17.0677 14.9951 17.2991C15.654 17.5025 16.1672 17.8035 16.508 18.2176C16.8505 18.634 17.0147 19.1521 17.0147 19.7541C17.0147 20.3886 16.8267 20.9227 16.4331 21.3322C16.0806 21.6991 15.5896 21.9349 14.9821 22.0562V23.25H13.6704ZM14.7439 21.8563C15.4121 21.7542 15.918 21.5245 16.2614 21.1672C16.6048 20.8099 16.7765 20.3389 16.7765 19.7541C16.7765 19.1973 16.6257 18.7355 16.324 18.3689C16.0224 18.0023 15.556 17.7216 14.9249 17.5267C14.1731 17.2946 13.658 17.0696 13.3796 16.8515C13.1011 16.6334 12.9619 16.348 12.9619 15.9953C12.9619 15.6612 13.0872 15.3967 13.3378 15.2017C13.5884 15.0068 13.9272 14.9094 14.3541 14.9094C14.7068 14.9094 14.9922 14.9767 15.2103 15.1113C15.4284 15.2458 15.6024 15.4616 15.7323 15.7586L16.512 15.4245C16.479 15.3508 16.4429 15.2799 16.4037 15.2117C16.2551 14.9534 16.0615 14.7343 15.8228 14.5544C15.5212 14.327 15.1616 14.1901 14.7439 14.1437V12.9882H13.9086V14.1437C13.3796 14.1901 12.9503 14.385 12.6208 14.7284C12.2914 15.0718 12.1266 15.4987 12.1266 16.0092C12.1266 16.5382 12.2914 16.9791 12.6208 17.3318C12.9503 17.6845 13.4492 17.9675 14.1174 18.181C14.8228 18.413 15.3031 18.6404 15.5583 18.8632C15.8136 19.0859 15.9412 19.4015 15.9412 19.8098C15.9412 20.1996 15.7973 20.5059 15.5096 20.7287C15.2219 20.9514 14.8553 21.0628 14.4098 21.0628C13.9921 21.0628 13.6348 20.9537 13.3378 20.7356C13.0923 20.5553 12.8943 20.2972 12.7439 19.9615C12.7124 19.8911 12.683 19.8174 12.6557 19.7402L11.876 20.0604C12.0245 20.5338 12.2682 20.9259 12.6069 21.2368C12.9457 21.5477 13.3796 21.7496 13.9086 21.8424V23.0118H14.7439V21.8563Z" fill="#001E2E"/>
</svg>
