<svg width="40" height="40" viewBox="0 0 40 40" fill="none" xmlns="http://www.w3.org/2000/svg">
<path d="M40 20C40 31.0457 31.0457 40 20 40C8.9543 40 0 31.0457 0 20C0 8.9543 8.9543 0 20 0C31.0457 0 40 8.9543 40 20Z" fill="white"/>
<path d="M12.1339 28.7305C11.207 27.7738 10.481 26.6682 9.9558 25.4138C9.4306 24.1594 9.16799 22.8731 9.16799 21.555C9.16799 20.0029 9.43907 18.5837 9.98122 17.2975C10.5234 16.0112 11.3366 14.8259 12.4209 13.7416C13.165 12.9975 14.0899 12.3703 15.1955 11.86C16.301 11.3497 17.6032 10.9511 19.1021 10.6641C20.601 10.377 22.2966 10.1963 24.1888 10.1219C26.081 10.0475 28.1859 10.0847 30.5033 10.2335C30.6734 12.5297 30.7318 14.6292 30.6787 16.5321C30.6255 18.4349 30.4555 20.1438 30.1684 21.6586C29.8814 23.1734 29.4775 24.4976 28.9566 25.6311C28.4357 26.7646 27.7925 27.7127 27.0271 28.4754C25.9428 29.5597 24.7735 30.3782 23.5191 30.931C22.2647 31.4838 20.9253 31.7602 19.5008 31.7602C18.0338 31.7602 16.689 31.5104 15.4665 31.0107C14.244 30.5111 13.1331 29.751 12.1339 28.7305ZM15.4187 28.7305C15.9502 29.0919 16.5668 29.3683 17.2684 29.5597C17.97 29.751 18.7133 29.8467 19.4983 29.8467C20.6268 29.8467 21.7225 29.6128 22.7856 29.1451C23.8486 28.6774 24.816 27.997 25.6877 27.1041C26.2617 26.53 26.7507 25.7806 27.1547 24.8557C27.5587 23.9309 27.8882 22.8359 28.1433 21.5709C28.3985 20.3059 28.5686 18.8761 28.6536 17.2815C28.7386 15.687 28.7386 13.9329 28.6536 12.0195C26.6551 11.9769 24.8638 12.0035 23.2799 12.0992C21.696 12.1949 20.2981 12.3703 19.0862 12.6254C17.8743 12.8805 16.8325 13.2047 15.9608 13.5981C15.0891 13.9914 14.3769 14.4751 13.8241 15.0491C12.9312 15.9633 12.2508 16.9307 11.7831 17.9512C11.3153 18.9718 11.0815 20.0135 11.0815 21.0766C11.0815 22.0971 11.2994 23.1655 11.7352 24.2817C12.1711 25.3979 12.7079 26.2961 13.3458 26.9765C13.3458 26.9765 14.0963 27.8313 15.4187 28.7305Z" fill="#AA93B7"/>
<path d="M18.2864 26.0835C18.0108 26.0835 17.8368 25.7872 17.9709 25.5465L19.4894 22.8203C19.6667 22.5019 19.4642 22.1054 19.1023 22.0625L16.6531 21.7718C16.2184 21.7202 16.0446 21.1823 16.3669 20.8861L21.7807 15.9097C21.8474 15.8484 21.9346 15.8144 22.0252 15.8144C22.3007 15.8144 22.4748 16.1107 22.3407 16.3514L20.8222 19.0776C20.6449 19.396 20.8474 19.7925 21.2093 19.8354L23.6585 20.1261C24.0932 20.1777 24.267 20.7156 23.9447 21.0118L18.5309 25.9882C18.4642 26.0494 18.377 26.0835 18.2864 26.0835Z" fill="#AA93B7"/>
</svg>
